<svg data-v-d3f97b9e="" xmlns="http://www.w3.org/2000/svg" viewBox="0 0 2279.874199131415 193"><!----><!----><!----><g data-v-d3f97b9e="" id="f4895e22-394b-4676-8221-2f9a6b1b02e2" fill="black" transform="matrix(12.121212588270268,0,0,12.121212588270268,956.1475055569856,-41.14576087386237)"><path d="M7.94 3.56L7.57 3.56C7.11 3.56 7.01 3.78 7.01 4.26L7.01 8.72C7.01 9.69 7.06 10.89 7.11 11.91L7.07 11.91C6.76 11.31 6.45 10.63 6.09 9.94L2.69 3.60C2.51 3.57 2.17 3.56 2.02 3.56C1.90 3.56 1.55 3.57 1.39 3.60L1.39 13.16C1.55 13.19 1.74 13.20 1.88 13.20C2.03 13.20 2.18 13.19 2.38 13.16L2.38 7.91C2.38 6.93 2.32 5.75 2.30 4.89L2.34 4.89C2.63 5.52 2.93 6.13 3.29 6.82L6.69 13.16C6.87 13.19 7.22 13.20 7.36 13.20C7.49 13.20 7.84 13.19 8.02 13.16L8.02 3.63ZM11.33 8.37C11.33 6.55 11.83 4.33 13.96 4.33C16.10 4.33 16.59 6.55 16.59 8.37C16.59 10.19 16.10 12.43 13.96 12.43C11.83 12.43 11.33 10.19 11.33 8.37ZM10.19 8.37C10.19 9.94 10.60 11.56 11.68 12.52C12.22 13.01 12.92 13.33 13.96 13.33C15.01 13.33 15.71 13.01 16.25 12.52C17.32 11.56 17.74 9.94 17.74 8.37C17.74 6.83 17.32 5.19 16.25 4.24C15.71 3.75 15.01 3.43 13.96 3.43C12.92 3.43 12.22 3.75 11.68 4.24C10.60 5.19 10.19 6.83 10.19 8.37ZM25.76 6.55C25.76 4.56 24.47 3.56 22.68 3.56C21.78 3.56 20.99 3.58 20.01 3.60L19.92 3.68L19.92 13.16C20.06 13.19 20.26 13.20 20.44 13.20C20.65 13.20 20.85 13.19 20.99 13.16L20.99 9.56L22.68 9.56C24.50 9.56 25.76 8.53 25.76 6.55ZM20.99 4.44C21.50 4.45 22.25 4.45 22.71 4.45C24.25 4.45 24.63 5.59 24.63 6.55C24.63 7.49 24.25 8.67 22.71 8.67C22.34 8.67 21.56 8.67 20.99 8.68ZM27.83 10.56C27.96 10.60 28.11 10.61 28.25 10.61C28.39 10.61 28.55 10.60 28.66 10.56L28.92 3.58L28.85 3.51C28.43 3.51 28 3.63 27.73 3.82ZM28.25 11.84C28 11.84 27.75 11.91 27.59 12.00C27.54 12.10 27.50 12.39 27.50 12.56C27.50 12.71 27.54 13.02 27.59 13.12C27.75 13.20 28 13.26 28.25 13.26C28.48 13.26 28.77 13.20 28.91 13.12C28.97 13.02 29.01 12.71 29.01 12.56C29.01 12.39 28.97 12.10 28.91 12.00C28.77 11.91 28.48 11.84 28.25 11.84Z"></path></g><!----><!----><g data-v-d3f97b9e="" id="d047e756-bbbf-48b3-a0dc-993a72873f81" fill="black" transform="matrix(6.302521336710863,0,0,6.302521336710863,-9.201653844385191,110.05882763367615)"><path d="M8.55 3.78L8.55 13.02L7.69 13.02L2.79 5.77L2.10 4.54L2.09 4.54L2.13 5.70L2.13 13.02L1.46 13.02L1.46 3.78L2.34 3.78L7.22 11.02L7.92 12.26L7.90 11.10L7.90 3.78L8.55 3.78ZM24.75 13.02L23.59 10.12L19.17 10.12L18.02 13.02L17.28 13.02L20.97 3.78L21.80 3.78L25.49 13.02L24.75 13.02ZM19.43 9.48L23.34 9.48L21.73 5.45L21.39 4.47L21.38 4.47L21.04 5.42L19.43 9.48ZM39.19 3.78L39.19 4.42L35.81 4.42L35.81 13.02L35.11 13.02L35.11 4.42L31.74 4.42L31.74 3.78L39.19 3.78ZM54.96 3.78L54.96 9.65L54.96 9.65Q54.96 11.35 54.04 12.26L54.04 12.26L54.04 12.26Q53.12 13.16 51.41 13.16L51.41 13.16L51.41 13.16Q49.70 13.16 48.77 12.26L48.77 12.26L48.77 12.26Q47.84 11.35 47.84 9.65L47.84 9.65L47.84 3.78L48.54 3.78L48.54 9.51L48.54 9.51Q48.54 10.99 49.27 11.75L49.27 11.75L49.27 11.75Q49.99 12.52 51.41 12.52L51.41 12.52L51.41 12.52Q52.81 12.52 53.54 11.75L53.54 11.75L53.54 11.75Q54.26 10.99 54.26 9.51L54.26 9.51L54.26 3.78L54.96 3.78ZM71.71 13.02L70.88 13.02L68.24 9.02L68.19 9.02L65.46 9.02L65.46 13.02L64.76 13.02L64.76 3.78L68.19 3.78L68.19 3.78Q69.58 3.78 70.40 4.48L70.40 4.48L70.40 4.48Q71.22 5.18 71.22 6.40L71.22 6.40L71.22 6.40Q71.22 7.41 70.63 8.07L70.63 8.07L70.63 8.07Q70.04 8.74 69.02 8.93L69.02 8.93L71.71 13.02ZM65.46 4.42L65.46 8.36L68.18 8.36L68.18 8.36Q69.30 8.36 69.89 7.85L69.89 7.85L69.89 7.85Q70.49 7.35 70.49 6.40L70.49 6.40L70.49 6.40Q70.49 5.45 69.89 4.93L69.89 4.93L69.89 4.93Q69.30 4.42 68.18 4.42L68.18 4.42L65.46 4.42ZM87.01 13.02L85.85 10.12L81.42 10.12L80.28 13.02L79.53 13.02L83.23 3.78L84.06 3.78L87.75 13.02L87.01 13.02ZM81.69 9.48L85.60 9.48L83.99 5.45L83.65 4.47L83.64 4.47L83.30 5.42L81.69 9.48ZM97.17 12.38L102.72 12.38L102.72 13.02L96.47 13.02L96.47 3.78L97.17 3.78L97.17 12.38ZM126.15 3.64L126.15 3.64Q127.46 3.64 128.41 4.22L128.41 4.22L128.41 4.22Q129.37 4.80 129.89 5.87L129.89 5.87L129.89 5.87Q130.41 6.94 130.41 8.40L130.41 8.40L130.41 8.40Q130.41 9.86 129.89 10.93L129.89 10.93L129.89 10.93Q129.37 12.00 128.41 12.58L128.41 12.58L128.41 12.58Q127.46 13.16 126.15 13.16L126.15 13.16L126.15 13.16Q124.85 13.16 123.89 12.58L123.89 12.58L123.89 12.58Q122.93 12.00 122.42 10.93L122.42 10.93L122.42 10.93Q121.90 9.86 121.90 8.40L121.90 8.40L121.90 8.40Q121.90 6.94 122.42 5.87L122.42 5.87L122.42 5.87Q122.93 4.80 123.89 4.22L123.89 4.22L123.89 4.22Q124.85 3.64 126.15 3.64L126.15 3.64ZM126.15 4.28L126.15 4.28Q125.08 4.28 124.28 4.78L124.28 4.78L124.28 4.78Q123.49 5.28 123.07 6.21L123.07 6.21L123.07 6.21Q122.64 7.14 122.64 8.40L122.64 8.40L122.64 8.40Q122.64 9.66 123.07 10.59L123.07 10.59L123.07 10.59Q123.49 11.52 124.28 12.02L124.28 12.02L124.28 12.02Q125.08 12.52 126.15 12.52L126.15 12.52L126.15 12.52Q127.23 12.52 128.03 12.02L128.03 12.02L128.03 12.02Q128.83 11.52 129.25 10.59L129.25 10.59L129.25 10.59Q129.68 9.66 129.68 8.40L129.68 8.40L129.68 8.40Q129.68 7.14 129.25 6.21L129.25 6.21L129.25 6.21Q128.83 5.28 128.03 4.78L128.03 4.78L128.03 4.78Q127.23 4.28 126.15 4.28L126.15 4.28ZM146.68 13.02L145.85 13.02L143.21 9.02L143.16 9.02L140.43 9.02L140.43 13.02L139.73 13.02L139.73 3.78L143.16 3.78L143.16 3.78Q144.55 3.78 145.37 4.48L145.37 4.48L145.37 4.48Q146.19 5.18 146.19 6.40L146.19 6.40L146.19 6.40Q146.19 7.41 145.60 8.07L145.60 8.07L145.60 8.07Q145.01 8.74 143.99 8.93L143.99 8.93L146.68 13.02ZM140.43 4.42L140.43 8.36L143.15 8.36L143.15 8.36Q144.27 8.36 144.86 7.85L144.86 7.85L144.86 7.85Q145.46 7.35 145.46 6.40L145.46 6.40L145.46 6.40Q145.46 5.45 144.86 4.93L144.86 4.93L144.86 4.93Q144.27 4.42 143.15 4.42L143.15 4.42L140.43 4.42ZM159.21 8.50L163.00 8.50L163.00 13.02L162.44 13.02L162.41 11.41L162.41 11.41Q162.04 12.25 161.23 12.71L161.23 12.71L161.23 12.71Q160.43 13.16 159.24 13.16L159.24 13.16L159.24 13.16Q157.98 13.16 157.03 12.58L157.03 12.58L157.03 12.58Q156.09 12.00 155.57 10.92L155.57 10.92L155.57 10.92Q155.06 9.84 155.06 8.40L155.06 8.40L155.06 8.40Q155.06 6.96 155.59 5.88L155.59 5.88L155.59 5.88Q156.11 4.80 157.07 4.22L157.07 4.22L157.07 4.22Q158.02 3.64 159.28 3.64L159.28 3.64L159.28 3.64Q160.69 3.64 161.59 4.20L161.59 4.20L161.59 4.20Q162.48 4.76 162.93 5.91L162.93 5.91L162.29 6.24L162.29 6.24Q161.97 5.28 161.20 4.78L161.20 4.78L161.20 4.78Q160.44 4.28 159.28 4.28L159.28 4.28L159.28 4.28Q158.24 4.28 157.46 4.78L157.46 4.78L157.46 4.78Q156.67 5.28 156.24 6.21L156.24 6.21L156.24 6.21Q155.81 7.14 155.81 8.40L155.81 8.40L155.81 8.40Q155.81 10.32 156.72 11.42L156.72 11.42L156.72 11.42Q157.64 12.52 159.26 12.52L159.26 12.52L159.26 12.52Q160.27 12.52 160.97 12.12L160.97 12.12L160.97 12.12Q161.67 11.72 162.01 11.07L162.01 11.07L162.01 11.07Q162.34 10.42 162.34 9.67L162.34 9.67L162.34 9.16L159.21 9.16L159.21 8.50ZM178.77 13.02L177.60 10.12L173.18 10.12L172.03 13.02L171.29 13.02L174.99 3.78L175.81 3.78L179.51 13.02L178.77 13.02ZM173.45 9.48L177.35 9.48L175.74 5.45L175.41 4.47L175.39 4.47L175.06 5.42L173.45 9.48ZM195.33 3.78L195.33 13.02L194.46 13.02L189.56 5.77L188.87 4.54L188.86 4.54L188.90 5.70L188.90 13.02L188.23 13.02L188.23 3.78L189.11 3.78L194.00 11.02L194.70 12.26L194.67 11.10L194.67 3.78L195.33 3.78ZM205.94 3.78L205.94 13.02L205.24 13.02L205.24 3.78L205.94 3.78ZM223.16 10.68L223.16 10.68Q222.77 11.86 221.79 12.51L221.79 12.51L221.79 12.51Q220.82 13.16 219.46 13.16L219.46 13.16L219.46 13.16Q218.20 13.16 217.25 12.58L217.25 12.58L217.25 12.58Q216.30 12.00 215.78 10.92L215.78 10.92L215.78 10.92Q215.26 9.84 215.26 8.40L215.26 8.40L215.26 8.40Q215.26 6.96 215.78 5.88L215.78 5.88L215.78 5.88Q216.30 4.80 217.25 4.22L217.25 4.22L217.25 4.22Q218.20 3.64 219.45 3.64L219.45 3.64L219.45 3.64Q222.22 3.64 223.03 5.92L223.03 5.92L222.35 6.24L222.35 6.24Q222.03 5.26 221.32 4.77L221.32 4.77L221.32 4.77Q220.61 4.28 219.49 4.28L219.49 4.28L219.49 4.28Q218.46 4.28 217.66 4.78L217.66 4.78L217.66 4.78Q216.87 5.28 216.44 6.21L216.44 6.21L216.44 6.21Q216.01 7.14 216.01 8.40L216.01 8.40L216.01 8.40Q216.01 9.66 216.43 10.59L216.43 10.59L216.43 10.59Q216.86 11.52 217.64 12.02L217.64 12.02L217.64 12.02Q218.41 12.52 219.46 12.52L219.46 12.52L219.46 12.52Q220.58 12.52 221.37 11.97L221.37 11.97L221.37 11.97Q222.15 11.42 222.46 10.42L222.46 10.42L223.16 10.68ZM246.67 3.78L246.67 3.78Q248.11 3.78 248.96 4.50L248.96 4.50L248.96 4.50Q249.80 5.22 249.80 6.48L249.80 6.48L249.80 6.48Q249.80 7.74 248.96 8.47L248.96 8.47L248.96 8.47Q248.11 9.20 246.67 9.20L246.67 9.20L244.30 9.20L244.30 13.02L243.60 13.02L243.60 3.78L246.67 3.78ZM246.58 8.54L246.58 8.54Q247.79 8.54 248.42 8.01L248.42 8.01L248.42 8.01Q249.06 7.48 249.06 6.48L249.06 6.48L249.06 6.48Q249.06 5.50 248.42 4.96L248.42 4.96L248.42 4.96Q247.79 4.42 246.58 4.42L246.58 4.42L244.30 4.42L244.30 8.54L246.58 8.54ZM265.76 13.02L264.94 13.02L262.29 9.02L262.25 9.02L259.52 9.02L259.52 13.02L258.82 13.02L258.82 3.78L262.25 3.78L262.25 3.78Q263.63 3.78 264.45 4.48L264.45 4.48L264.45 4.48Q265.27 5.18 265.27 6.40L265.27 6.40L265.27 6.40Q265.27 7.41 264.68 8.07L264.68 8.07L264.68 8.07Q264.10 8.74 263.07 8.93L263.07 8.93L265.76 13.02ZM259.52 4.42L259.52 8.36L262.23 8.36L262.23 8.36Q263.35 8.36 263.95 7.85L263.95 7.85L263.95 7.85Q264.54 7.35 264.54 6.40L264.54 6.40L264.54 6.40Q264.54 5.45 263.95 4.93L263.95 4.93L263.95 4.93Q263.35 4.42 262.23 4.42L262.23 4.42L259.52 4.42ZM278.40 3.64L278.40 3.64Q279.71 3.64 280.66 4.22L280.66 4.22L280.66 4.22Q281.62 4.80 282.14 5.87L282.14 5.87L282.14 5.87Q282.66 6.94 282.66 8.40L282.66 8.40L282.66 8.40Q282.66 9.86 282.14 10.93L282.14 10.93L282.14 10.93Q281.62 12.00 280.66 12.58L280.66 12.58L280.66 12.58Q279.71 13.16 278.40 13.16L278.40 13.16L278.40 13.16Q277.10 13.16 276.14 12.58L276.14 12.58L276.14 12.58Q275.18 12.00 274.67 10.93L274.67 10.93L274.67 10.93Q274.15 9.86 274.15 8.40L274.15 8.40L274.15 8.40Q274.15 6.94 274.67 5.87L274.67 5.87L274.67 5.87Q275.18 4.80 276.14 4.22L276.14 4.22L276.14 4.22Q277.10 3.64 278.40 3.64L278.40 3.64ZM278.40 4.28L278.40 4.28Q277.33 4.28 276.53 4.78L276.53 4.78L276.53 4.78Q275.74 5.28 275.32 6.21L275.32 6.21L275.32 6.21Q274.89 7.14 274.89 8.40L274.89 8.40L274.89 8.40Q274.89 9.66 275.32 10.59L275.32 10.59L275.32 10.59Q275.74 11.52 276.53 12.02L276.53 12.02L276.53 12.02Q277.33 12.52 278.40 12.52L278.40 12.52L278.40 12.52Q279.48 12.52 280.28 12.02L280.28 12.02L280.28 12.02Q281.08 11.52 281.50 10.59L281.50 10.59L281.50 10.59Q281.93 9.66 281.93 8.40L281.93 8.40L281.93 8.40Q281.93 7.14 281.50 6.21L281.50 6.21L281.50 6.21Q281.08 5.28 280.28 4.78L280.28 4.78L280.28 4.78Q279.48 4.28 278.40 4.28L278.40 4.28ZM294.90 3.78L294.90 3.78Q297.11 3.78 298.30 4.95L298.30 4.95L298.30 4.95Q299.50 6.12 299.50 8.33L299.50 8.33L299.50 8.33Q299.50 10.60 298.30 11.81L298.30 11.81L298.30 11.81Q297.11 13.02 294.90 13.02L294.90 13.02L291.98 13.02L291.98 3.78L294.90 3.78ZM294.95 12.38L294.95 12.38Q296.80 12.38 297.79 11.33L297.79 11.33L297.79 11.33Q298.77 10.29 298.77 8.33L298.77 8.33L298.77 8.33Q298.77 6.45 297.79 5.44L297.79 5.44L297.79 5.44Q296.80 4.42 294.95 4.42L294.95 4.42L292.68 4.42L292.68 12.38L294.95 12.38ZM315.85 3.78L315.85 9.65L315.85 9.65Q315.85 11.35 314.93 12.26L314.93 12.26L314.93 12.26Q314.01 13.16 312.30 13.16L312.30 13.16L312.30 13.16Q310.59 13.16 309.66 12.26L309.66 12.26L309.66 12.26Q308.73 11.35 308.73 9.65L308.73 9.65L308.73 3.78L309.43 3.78L309.43 9.51L309.43 9.51Q309.43 10.99 310.16 11.75L310.16 11.75L310.16 11.75Q310.88 12.52 312.30 12.52L312.30 12.52L312.30 12.52Q313.70 12.52 314.43 11.75L314.43 11.75L314.43 11.75Q315.15 10.99 315.15 9.51L315.15 9.51L315.15 3.78L315.85 3.78ZM332.96 10.68L332.96 10.68Q332.57 11.86 331.60 12.51L331.60 12.51L331.60 12.51Q330.62 13.16 329.27 13.16L329.27 13.16L329.27 13.16Q328.01 13.16 327.05 12.58L327.05 12.58L327.05 12.58Q326.10 12.00 325.58 10.92L325.58 10.92L325.58 10.92Q325.07 9.84 325.07 8.40L325.07 8.40L325.07 8.40Q325.07 6.96 325.58 5.88L325.58 5.88L325.58 5.88Q326.10 4.80 327.05 4.22L327.05 4.22L327.05 4.22Q328.01 3.64 329.25 3.64L329.25 3.64L329.25 3.64Q332.02 3.64 332.84 5.92L332.84 5.92L332.15 6.24L332.15 6.24Q331.83 5.26 331.12 4.77L331.12 4.77L331.12 4.77Q330.41 4.28 329.29 4.28L329.29 4.28L329.29 4.28Q328.26 4.28 327.47 4.78L327.47 4.78L327.47 4.78Q326.68 5.28 326.24 6.21L326.24 6.21L326.24 6.21Q325.81 7.14 325.81 8.40L325.81 8.40L325.81 8.40Q325.81 9.66 326.23 10.59L326.23 10.59L326.23 10.59Q326.66 11.52 327.44 12.02L327.44 12.02L327.44 12.02Q328.22 12.52 329.27 12.52L329.27 12.52L329.27 12.52Q330.39 12.52 331.17 11.97L331.17 11.97L331.17 11.97Q331.95 11.42 332.26 10.42L332.26 10.42L332.96 10.68ZM348.28 3.78L348.28 4.42L344.90 4.42L344.90 13.02L344.20 13.02L344.20 4.42L340.83 4.42L340.83 3.78L348.28 3.78ZM359.59 3.64L359.59 3.64Q362.19 3.64 363.08 5.68L363.08 5.68L362.47 6.17L362.47 6.17Q362.12 5.18 361.43 4.73L361.43 4.73L361.43 4.73Q360.74 4.28 359.60 4.28L359.60 4.28L359.60 4.28Q358.79 4.28 358.19 4.54L358.19 4.54L358.19 4.54Q357.59 4.79 357.27 5.22L357.27 5.22L357.27 5.22Q356.96 5.66 356.96 6.20L356.96 6.20L356.96 6.20Q356.96 6.73 357.22 7.08L357.22 7.08L357.22 7.08Q357.49 7.43 358.13 7.68L358.13 7.68L358.13 7.68Q358.76 7.92 359.88 8.12L359.88 8.12L359.88 8.12Q361.69 8.43 362.45 9.02L362.45 9.02L362.45 9.02Q363.20 9.60 363.20 10.64L363.20 10.64L363.20 10.64Q363.20 11.38 362.77 11.96L362.77 11.96L362.77 11.96Q362.33 12.53 361.54 12.84L361.54 12.84L361.54 12.84Q360.75 13.16 359.73 13.16L359.73 13.16L359.73 13.16Q358.27 13.16 357.27 12.58L357.27 12.58L357.27 12.58Q356.27 12.00 355.91 10.95L355.91 10.95L356.52 10.47L356.52 10.47Q356.80 11.47 357.65 11.99L357.65 11.99L357.65 11.99Q358.50 12.52 359.74 12.52L359.74 12.52L359.74 12.52Q360.95 12.52 361.71 12.03L361.71 12.03L361.71 12.03Q362.47 11.54 362.47 10.68L362.47 10.68L362.47 10.68Q362.47 9.94 361.85 9.51L361.85 9.51L361.85 9.51Q361.23 9.07 359.69 8.81L359.69 8.81L359.69 8.81Q358.39 8.58 357.63 8.26L357.63 8.26L357.63 8.26Q356.87 7.94 356.55 7.46L356.55 7.46L356.55 7.46Q356.22 6.99 356.22 6.27L356.22 6.27L356.22 6.27Q356.22 5.56 356.63 4.96L356.63 4.96L356.63 4.96Q357.04 4.35 357.81 4.00L357.81 4.00L357.81 4.00Q358.57 3.64 359.59 3.64L359.59 3.64Z"></path></g></svg>