<svg data-v-d3f97b9e="" xmlns="http://www.w3.org/2000/svg" viewBox="0 0 183.72493155087022 60"><!----><!----><!----><g data-v-d3f97b9e="" id="1f9f66ad-d8ef-4db7-9bd5-b46468d8075a" fill="white" transform="matrix(5.730658879632186,0,0,5.730658879632186,-4.985674957720903,-2.5787959128532307)"><path d="M8.37 10.92L2.87 2.23L2.81 2.23L2.81 9.10L2.81 9.10Q2.81 9.62 3.06 9.92L3.06 9.92L3.06 9.92Q3.30 10.22 3.70 10.22L3.70 10.22L4.20 10.22L4.20 10.67L0.87 10.67L0.87 10.22L1.37 10.22L1.37 10.22Q1.78 10.22 2.02 9.92L2.02 9.92L2.02 9.92Q2.25 9.62 2.25 9.10L2.25 9.10L2.25 1.53L2.25 1.53Q2.24 1.33 2.16 1.24L2.16 1.24L2.16 1.24Q2.07 1.15 1.88 1.15L1.88 1.15L0.87 1.15L0.87 0.70L3.51 0.70L8.37 8.51L8.37 2.27L8.37 2.27Q8.37 1.75 8.13 1.45L8.13 1.45L8.13 1.45Q7.90 1.15 7.50 1.15L7.50 1.15L7 1.15L7 0.70L10.33 0.70L10.33 1.15L9.83 1.15L9.83 1.15Q9.44 1.15 9.18 1.45L9.18 1.45L9.18 1.45Q8.93 1.75 8.93 2.27L8.93 2.27L8.93 10.92L8.37 10.92ZM15.82 10.92L15.82 10.92Q14.64 10.92 13.72 10.18L13.72 10.18L13.72 10.18Q12.80 9.44 12.28 8.23L12.28 8.23L12.28 8.23Q11.76 7.01 11.76 5.68L11.76 5.68L11.76 5.68Q11.76 4.35 12.28 3.14L12.28 3.14L12.28 3.14Q12.80 1.93 13.72 1.19L13.72 1.19L13.72 1.19Q14.64 0.45 15.82 0.45L15.82 0.45L15.82 0.45Q17.00 0.45 17.92 1.19L17.92 1.19L17.92 1.19Q18.84 1.93 19.36 3.14L19.36 3.14L19.36 3.14Q19.88 4.35 19.88 5.68L19.88 5.68L19.88 5.68Q19.88 7.01 19.36 8.23L19.36 8.23L19.36 8.23Q18.84 9.44 17.92 10.18L17.92 10.18L17.92 10.18Q17.00 10.92 15.82 10.92L15.82 10.92ZM15.82 10.47L15.82 10.47Q17.19 10.47 17.79 9.22L17.79 9.22L17.79 9.22Q18.40 7.97 18.40 5.68L18.40 5.68L18.40 5.68Q18.40 3.39 17.79 2.14L17.79 2.14L17.79 2.14Q17.19 0.90 15.82 0.90L15.82 0.90L15.82 0.90Q14.45 0.90 13.85 2.14L13.85 2.14L13.85 2.14Q13.24 3.39 13.24 5.68L13.24 5.68L13.24 5.68Q13.24 7.97 13.85 9.22L13.85 9.22L13.85 9.22Q14.45 10.47 15.82 10.47L15.82 10.47ZM21.45 10.67L21.45 10.22L22.46 10.22L22.46 10.22Q22.83 10.22 22.83 9.84L22.83 9.84L22.83 1.53L22.83 1.53Q22.83 1.33 22.74 1.24L22.74 1.24L22.74 1.24Q22.65 1.15 22.46 1.15L22.46 1.15L21.45 1.15L21.45 0.70L26.12 0.70L26.12 0.70Q27.10 0.70 27.87 1.03L27.87 1.03L27.87 1.03Q28.63 1.36 29.06 1.95L29.06 1.95L29.06 1.95Q29.48 2.55 29.48 3.30L29.48 3.30L29.48 3.30Q29.48 4.07 29.06 4.68L29.06 4.68L29.06 4.68Q28.63 5.28 27.87 5.62L27.87 5.62L27.87 5.62Q27.10 5.96 26.12 5.96L26.12 5.96L24.12 5.96L24.12 9.84L24.12 9.84Q24.12 10.04 24.21 10.13L24.21 10.13L24.21 10.13Q24.29 10.22 24.50 10.22L24.50 10.22L25.73 10.22L25.73 10.67L21.45 10.67ZM24.12 5.52L26.31 5.52L26.31 5.52Q27.06 5.52 27.53 4.87L27.53 4.87L27.53 4.87Q28 4.21 28 3.30L28 3.30L28 3.30Q28 2.39 27.54 1.77L27.54 1.77L27.54 1.77Q27.08 1.15 26.31 1.15L26.31 1.15L24.50 1.15L24.50 1.15Q24.30 1.15 24.21 1.24L24.21 1.24L24.21 1.24Q24.12 1.33 24.12 1.53L24.12 1.53L24.12 5.52ZM31.89 8.48L31.67 5.68L31.67 5.68Q31.63 5.08 31.43 4.03L31.43 4.03L31.43 4.03Q31.19 2.72 31.19 1.96L31.19 1.96L31.19 1.96Q31.19 1.50 31.43 1.23L31.43 1.23L31.43 1.23Q31.67 0.95 32.06 0.95L32.06 0.95L32.06 0.95Q32.45 0.95 32.69 1.23L32.69 1.23L32.69 1.23Q32.93 1.50 32.93 1.96L32.93 1.96L32.93 1.96Q32.93 2.72 32.69 4.03L32.69 4.03L32.69 4.03Q32.49 5.08 32.45 5.68L32.45 5.68L32.23 8.48L31.89 8.48ZM32.06 10.84L32.06 10.84Q31.68 10.84 31.44 10.59L31.44 10.59L31.44 10.59Q31.19 10.35 31.19 9.97L31.19 9.97L31.19 9.97Q31.19 9.59 31.44 9.35L31.44 9.35L31.44 9.35Q31.68 9.10 32.06 9.10L32.06 9.10L32.06 9.10Q32.44 9.10 32.68 9.35L32.68 9.35L32.68 9.35Q32.93 9.59 32.93 9.97L32.93 9.97L32.93 9.97Q32.93 10.35 32.68 10.59L32.68 10.59L32.68 10.59Q32.44 10.84 32.06 10.84L32.06 10.84Z"></path></g><!----><!----></svg>